HIERARCHY
ROOT Hips
{
	OFFSET -3.958830 18.904000 13.208200
	CHANNELS 6 Xposition Yposition Zposition Zrotation Yrotation Xrotation 
	JOINT LHipJoint
	{
		OFFSET 0.000000 0.000000 0.000000
		CHANNELS 3 Zrotation Yrotation Xrotation
		JOINT LeftUpLeg
		{
			OFFSET 1.800000 -1.400000 0.085000
			CHANNELS 3 Zrotation Yrotation Xrotation
			JOINT LeftLeg
			{
				OFFSET 2.215000 -6.000000 0.000000
				CHANNELS 3 Zrotation Yrotation Xrotation
				JOINT LeftFoot
				{
					OFFSET 2.500000 -6.900000 0.000000
					CHANNELS 3 Zrotation Yrotation Xrotation
					JOINT LeftToeBase
					{
						OFFSET 0.200000 -0.500000 1.950000
						CHANNELS 3 Zrotation Yrotation Xrotation
						End Site
						{
							OFFSET 0.000000 0.000000 0.000000
						}
					}
				}
			}
		}
	}
	JOINT RHipJoint
	{
		OFFSET 0.000000 0.000000 0.000000
		CHANNELS 3 Zrotation Yrotation Xrotation
		JOINT RightUpLeg
		{
			OFFSET -1.800000 -1.400000 0.085000
			CHANNELS 3 Zrotation Yrotation Xrotation
			JOINT RightLeg
			{
				OFFSET -2.215000 -6.000000 0.000000
				CHANNELS 3 Zrotation Yrotation Xrotation
				JOINT RightFoot
				{
					OFFSET -2.500000 -6.900000 0.000000
					CHANNELS 3 Zrotation Yrotation Xrotation
					JOINT RightToeBase
					{
						OFFSET -0.200000 -0.500000 1.950000
						CHANNELS 3 Zrotation Yrotation Xrotation
						End Site
						{
							OFFSET 0.000000 0.000000 0.000000
						}
					}
				}
			}
		}
	}
	JOINT LowerBack
	{
		OFFSET 0.000000 0.000000 0.000000
		CHANNELS 3 Zrotation Yrotation Xrotation
		JOINT Spine
		{
			OFFSET -0.087000 1.940000 -0.288900
			CHANNELS 3 Zrotation Yrotation Xrotation
			JOINT Spine1
			{
				OFFSET 0.000000 1.950000 0.060000
				CHANNELS 3 Zrotation Yrotation Xrotation
				JOINT Neck
				{
					OFFSET 0.000000 0.000000 0.000000
					CHANNELS 3 Zrotation Yrotation Xrotation
					JOINT Neck1
					{
						OFFSET 0.000000 1.600000 0.340000
						CHANNELS 3 Zrotation Yrotation Xrotation
						JOINT Head
						{
							OFFSET 0.000000 1.667000 -0.240000
							CHANNELS 3 Zrotation Yrotation Xrotation
							End Site
							{
								OFFSET 0.000000 0.000000 0.000000
							}
						}
					}
				}
				JOINT LeftShoulder
				{
					OFFSET 0.000000 0.000000 0.000000
					CHANNELS 3 Zrotation Yrotation Xrotation
					JOINT LeftArm
					{
						OFFSET 2.700000 1.550000 -0.730000
						CHANNELS 3 Zrotation Yrotation Xrotation
						JOINT LeftForeArm
						{
							OFFSET 5.450000 0.000000 0.000000
							CHANNELS 3 Zrotation Yrotation Xrotation
							JOINT LeftHand
							{
								OFFSET 3.450000 0.000000 0.000000
								CHANNELS 3 Zrotation Yrotation Xrotation
								JOINT LeftHandIndex1
								{
									OFFSET 0.750000 0.000000 0.000000
									CHANNELS 3 Zrotation Yrotation Xrotation
									End Site
									{
										OFFSET 0.000000 0.000000 0.000000
									}
								}
							}
						}
					}
				}
				JOINT RightShoulder
				{
					OFFSET 0.000000 0.000000 0.000000
					CHANNELS 3 Zrotation Yrotation Xrotation
					JOINT RightArm
					{
						OFFSET -2.700000 1.550000 -0.730000
						CHANNELS 3 Zrotation Yrotation Xrotation
						JOINT RightForeArm
						{
							OFFSET -5.450000 0.000000 0.000000
							CHANNELS 3 Zrotation Yrotation Xrotation
							JOINT RightHand
							{
								OFFSET -3.450000 0.000000 0.000000
								CHANNELS 3 Zrotation Yrotation Xrotation
								JOINT RightHandIndex1
								{
									OFFSET -0.750000 0.000000 0.000000
									CHANNELS 3 Zrotation Yrotation Xrotation
									End Site
									{
										OFFSET 0.000000 0.000000 0.000000
									}
								}
							}
						}
					}
				}
			}
		}
	}
}
MOTION
Frames: 14
Frame Time: 0.016667
-1.066290 16.830730 -2.529610 -3.962711 -16.531706 -17.145104 -16.002452 15.547774 2.818576 2.256601 -0.373030 -9.478156 6.952109 5.256793 37.604950 0.102337 5.521048 2.360596 0.479480 1.005070 0.115720 17.086367 -10.145942 2.897240 -12.455666 1.742635 -2.645610 19.895712 -11.544477 24.232575 -1.189471 -5.634301 2.292191 0.288980 -0.442090 -0.208920 -0.262341 -6.516022 -8.532719 3.050335 5.158436 25.929569 16.294152 1.658578 29.572427 4.875024 -6.411443 -29.328890 -24.462030 14.716846 62.248575 -8.335810 5.055880 -34.226200 -24.184597 -41.837508 16.630160 -49.453747 -31.955423 -11.301335 34.590196 -44.238827 -20.880828 -2.627941 2.594646 0.731710 -0.505040 0.569400 -0.058660 18.891069 51.026637 23.809257 27.086990 27.427483 -36.922363 -117.725434 65.843320 -90.410602 3.071753 1.110023 0.121120 0.432040 -0.007170 -0.054570 
-1.028620 16.838990 -2.543900 -5.196429 -16.410118 -16.906459 -15.749738 15.285994 2.763554 2.979629 -0.320109 -9.896906 6.804000 5.568009 38.998301 0.107368 5.716650 2.295084 0.492050 1.030090 0.140640 17.297056 -10.339869 3.118761 -13.599343 2.500416 -4.063170 22.310086 -12.480787 25.205065 -1.280367 -5.996398 2.165218 0.306220 -0.448420 -0.213520 -0.953498 -5.643377 -8.578623 7.106372 4.383861 26.645770 13.517312 1.932052 28.784137 4.957398 -5.770456 -28.054383 -21.486495 12.942438 63.443835 -9.685970 5.112930 -35.834300 -25.122467 -41.041893 16.838039 -49.557660 -31.598164 -11.840539 43.108969 -45.611110 -25.846094 -2.793337 2.468837 0.743380 -0.501420 0.588770 -0.051690 18.906591 49.917430 22.447931 28.710333 28.424132 -45.961768 -106.552385 69.743754 -73.495957 3.622529 -0.547759 0.110470 0.461690 -0.019670 -0.063930 
-1.025560 16.840710 -2.556680 -4.933129 -15.903480 -17.015096 -15.621571 14.972087 2.745580 3.302970 -0.374786 -10.173133 5.065360 6.596138 40.037211 0.081104 6.028107 2.186603 0.467490 0.997440 0.143070 17.418666 -10.456821 3.222494 -16.192201 2.966333 -5.171284 24.147663 -13.347496 25.810620 -1.316729 -6.369509 2.016595 0.318880 -0.404940 -0.212750 -1.360843 -4.890550 -8.582614 7.703386 4.438798 26.134300 11.726098 2.294075 29.449230 4.515279 -4.721029 -27.090060 -17.059636 10.823267 63.657662 -9.856280 5.781780 -35.850670 -25.260159 -40.614589 16.857253 -47.823836 -32.281099 -12.591083 53.669098 -46.091610 -32.146899 -3.141470 2.419532 0.741560 -0.452020 0.551730 -0.076450 19.242580 48.829129 22.119818 27.456270 30.811189 -46.810666 -90.202003 64.768172 -59.582378 4.390940 -2.254095 0.067270 0.494680 0.023790 -0.096530 
-1.031920 16.811940 -2.565220 -5.290636 -15.372475 -16.360998 -15.420838 14.606128 2.707653 4.046356 -0.520917 -11.165660 3.953273 7.318125 41.011406 0.115366 6.251177 2.131987 0.438740 0.974040 0.099420 17.598838 -10.631136 3.432243 -18.831426 3.437099 -7.013757 26.455133 -14.447305 26.534649 -1.357734 -6.816070 1.863474 0.318990 -0.329600 -0.201860 -1.939607 -3.921077 -8.644671 9.264638 4.168130 25.346272 9.609601 2.663146 28.904447 4.152959 -3.787347 -26.096580 -13.304355 8.362246 62.446279 -9.220950 5.626700 -33.938110 -26.895387 -39.761986 16.613864 -45.619149 -32.430915 -13.046461 62.194432 -47.230463 -37.587095 -3.457365 2.458050 0.680480 -0.386420 0.500670 -0.051890 21.204804 47.420616 22.065892 27.057440 34.851378 -42.151819 -84.555584 53.026180 -50.271507 3.841252 -1.801935 0.056940 0.502040 0.032800 -0.074600 
-1.036500 16.778680 -2.566740 -5.572803 -14.446977 -15.747519 -15.216151 14.213235 2.706199 4.999421 -0.734497 -12.147550 2.107396 8.452690 42.053244 0.159937 6.582591 2.039182 0.388670 0.935610 0.027790 17.798156 -10.826731 3.573016 -21.761050 3.547801 -8.462908 27.651280 -15.493687 27.522368 -1.369902 -7.229113 1.719442 0.315030 -0.233920 -0.206070 -2.553071 -2.956263 -8.694293 11.142596 4.093164 24.164032 7.498770 3.111591 28.294663 3.627162 -2.939620 -25.216551 -10.356762 6.592911 61.055147 -7.572710 5.557880 -31.434320 -27.620207 -39.218189 16.479122 -43.735845 -33.203665 -13.515643 70.145621 -47.053634 -42.155474 -3.678123 2.480194 0.618680 -0.315800 0.430450 -0.034140 22.574197 46.025145 21.583945 28.324764 37.192268 -38.278220 -85.120475 44.247284 -45.980588 3.220094 -1.409142 0.031470 0.519150 0.060300 -0.048810 
-1.044540 16.773570 -2.563770 -5.194054 -13.429613 -15.945920 -15.072480 13.936526 2.699615 5.262350 -0.787025 -12.046375 0.930035 9.229711 42.722008 0.144625 6.878985 1.969142 0.362030 0.899530 0.013170 17.948671 -11.014085 3.602622 -25.060181 3.394461 -8.842725 27.335027 -16.275544 28.791427 -1.376301 -7.528994 1.604539 0.334630 -0.163580 -0.234090 -3.004082 -2.258502 -8.688510 12.234153 4.016309 23.502989 4.951135 3.550458 28.932806 3.708737 -2.273625 -24.561535 -8.471604 5.152572 60.645903 -6.707280 4.903300 -31.629630 -28.637909 -39.177483 16.463461 -40.569160 -34.738242 -15.909352 81.326230 -43.512108 -46.405274 -3.811166 2.355456 0.621830 -0.281580 0.387050 -0.033150 23.069488 45.486809 21.152625 28.761397 38.055916 -37.068355 -86.612080 40.958769 -45.148795 2.950546 -1.248577 -0.032300 0.606160 0.099000 -0.061860 
-1.062240 16.768110 -2.554970 -4.516746 -12.212104 -16.427050 -14.959597 13.801242 2.732019 5.339174 -0.708599 -11.704694 -0.218106 10.028448 43.315027 0.207832 7.111628 1.908120 0.405600 0.966440 -0.024580 18.058750 -11.193890 3.539886 -28.092049 3.139880 -8.648980 25.522542 -16.645836 30.483737 -1.366940 -7.745240 1.510522 0.386130 -0.113510 -0.242550 -3.333681 -1.915909 -8.714001 13.021536 4.062425 23.156815 3.429480 3.917241 29.698014 3.071215 -3.015871 -24.494952 -10.490537 5.340275 59.888349 -2.522320 3.474740 -31.102750 -29.655700 -40.396895 16.207390 -36.128774 -36.438152 -17.541000 90.249058 -38.030034 -47.630139 -3.730077 2.275478 0.591670 -0.276540 0.360140 0.014250 25.226820 46.470199 21.585491 27.033821 37.431313 -37.838418 -91.218050 38.992185 -45.837992 2.793196 -1.137935 -0.025510 0.623290 0.075930 -0.018350 
-1.080390 16.764550 -2.541010 -3.317558 -11.573406 -16.991045 -14.945468 13.677222 2.715360 5.188510 -0.388603 -10.980022 -1.378623 10.889579 43.628154 0.250898 7.357515 1.834266 0.430840 1.008940 -0.051790 18.108074 -11.296898 3.430995 -31.305756 2.864538 -8.134741 23.492341 -16.615427 31.355980 -1.314080 -7.880293 1.427486 0.440120 -0.067330 -0.237900 -3.434467 -1.674860 -8.666768 12.295773 4.773538 22.371729 3.109023 4.582970 30.611217 2.244019 -3.087364 -23.251325 -10.447798 4.792882 57.990491 -0.561370 2.825770 -30.390820 -29.428656 -41.661363 14.930578 -32.393465 -37.886213 -16.522295 97.137365 -31.950287 -47.284598 -3.613170 2.244267 0.547040 -0.243140 0.319270 0.038380 26.347351 47.044586 21.238565 25.708776 36.496479 -36.839976 -96.968515 37.951431 -48.827727 2.595229 -1.018354 -0.030730 0.622580 0.070220 0.004080 
-1.098210 16.755380 -2.525870 -2.507294 -10.533542 -17.148552 -14.865430 13.460567 2.671352 4.875812 -0.274134 -10.482866 -2.246427 11.503458 44.004893 0.281553 7.604840 1.784582 0.424810 1.022010 -0.104590 18.250563 -11.440564 3.278621 -33.976378 2.367800 -7.452502 21.215892 -16.257085 31.443190 -1.225286 -7.901288 1.408128 0.485870 0.037300 -0.243210 -3.783733 -1.249543 -8.506343 12.395245 4.766129 20.643524 1.951981 4.461270 31.817938 1.411904 -3.269116 -21.821837 -10.420810 4.536617 55.015461 1.307190 2.245000 -28.819230 -27.236397 -43.163296 13.363731 -29.533820 -38.632527 -15.625437 102.827272 -23.972374 -44.395421 -3.555456 2.310118 0.475090 -0.173650 0.244890 0.065300 25.520800 47.228356 20.555379 25.130458 34.982187 -34.710567 -102.807048 38.542647 -54.769175 2.422812 -0.894300 -0.054730 0.668930 0.093300 0.036780 
-1.112490 16.734420 -2.516930 -1.480009 -9.666819 -17.331787 -14.888207 13.306284 2.614738 4.565435 -0.148359 -10.239928 -3.182964 12.048576 43.944110 0.304288 7.765408 1.762914 0.439860 1.061240 -0.149770 18.311388 -11.441330 3.116483 -36.670771 2.030315 -6.784512 19.170346 -15.850506 31.338171 -1.147678 -7.938080 1.391274 0.545640 0.131310 -0.243310 -3.869188 -1.113007 -8.295494 11.241432 4.871682 19.484502 1.113297 4.688553 32.240651 0.555355 -2.990273 -19.661992 -9.301208 4.101988 50.929479 3.025170 2.008680 -27.526090 -24.989197 -43.921181 11.135209 -25.590771 -37.599057 -14.824155 108.686127 -16.988860 -41.027970 -3.540795 2.460818 0.403600 -0.104690 0.177940 0.110070 24.551867 46.844994 19.324711 24.041110 31.845825 -30.893069 -108.639048 37.954868 -61.278370 2.240051 -0.852846 -0.074540 0.694170 0.086510 0.072670 
-1.125430 16.727100 -2.514790 -0.282582 -9.197695 -18.129566 -14.984996 13.350414 2.544432 4.372139 0.333458 -9.205380 -3.657176 12.333222 43.409319 0.346359 7.823836 1.784468 0.431050 1.077070 -0.212220 18.273906 -11.397875 2.923315 -38.957620 1.888092 -5.958860 16.507132 -15.169906 31.550484 -1.065164 -7.916974 1.404487 0.576840 0.222110 -0.238790 -3.690364 -1.345359 -8.078818 9.516696 5.044950 19.317866 1.163595 5.019367 32.420158 -0.178342 -3.312688 -17.791382 -9.686902 4.052728 47.265027 3.952350 1.405490 -25.975540 -22.811833 -43.744647 9.347690 -21.153018 -35.827242 -14.659576 112.937776 -12.628099 -38.211496 -3.601051 2.598508 0.320840 -0.039930 0.114560 0.149750 23.511871 46.844407 17.799737 20.767741 27.306256 -27.347437 -113.538975 36.505691 -66.092044 2.137036 -0.901532 -0.078440 0.712530 0.090000 0.120070 
-1.128900 16.714450 -2.520970 0.328424 -9.191062 -19.115163 -14.968874 13.350541 2.483476 4.799312 0.953766 -7.700480 -4.653514 12.768500 42.254885 0.387412 7.818470 1.806844 0.425290 1.072460 -0.239540 18.316720 -11.485102 2.755426 -40.480472 1.853805 -5.032522 13.599986 -14.110924 31.229135 -0.983928 -7.779140 1.437632 0.581030 0.244700 -0.225800 -3.781618 -1.283020 -7.888797 9.713042 4.748891 20.298267 -0.684388 5.239522 32.175221 0.009513 -3.703189 -16.414047 -10.056654 4.317177 43.731174 4.275120 1.378460 -25.176680 -19.989714 -42.768157 8.024436 -15.739235 -32.778420 -15.412159 116.653307 -9.666202 -35.938837 -3.661066 2.762013 0.275380 -0.016080 0.079820 0.161310 20.034788 46.210183 16.358317 17.658405 23.709318 -24.233240 -117.326171 34.768498 -70.178211 2.103256 -1.046609 -0.070250 0.671520 0.080930 0.140520 
-1.123620 16.721220 -2.540700 0.732032 -8.929617 -20.833030 -14.901958 13.386739 2.438186 4.639450 1.536563 -5.639823 -4.599671 12.588829 41.184214 0.464700 7.640978 1.900131 0.395580 1.054610 -0.294200 18.374613 -11.649434 2.612826 -41.610158 1.926012 -2.873475 10.652926 -12.905184 30.190976 -0.939752 -7.584570 1.528494 0.539090 0.247280 -0.235210 -3.964286 -1.198121 -7.741353 10.784559 3.757545 22.874797 -2.989942 4.884363 32.012983 0.598034 -5.627662 -16.120806 -13.382559 5.660828 40.672268 5.261180 1.270710 -25.582930 -16.673480 -40.180917 8.360924 -11.693430 -26.856383 -17.052884 120.833686 -9.536329 -39.478440 -3.674912 2.873724 0.254830 -0.039610 0.073950 0.177120 15.623493 45.581682 14.987006 13.310433 20.286983 -22.342244 -120.457773 33.655082 -73.776035 2.133469 -1.162567 -0.045140 0.640000 0.068690 0.180540 
-1.097580 16.711970 -2.556610 0.056892 -8.178538 -22.290673 -14.640187 13.080019 2.266888 5.245259 2.101993 -3.606156 -4.375216 12.332606 40.133754 0.510821 7.485456 2.004224 0.339730 1.007320 -0.402130 18.639137 -12.116108 2.508606 -41.679547 1.942464 -0.318798 7.731841 -11.629352 28.468693 -0.888065 -7.451786 1.629347 0.500100 0.320200 -0.239430 -4.739957 -0.041364 -7.449469 15.351467 1.855568 24.798379 -6.673937 3.626352 32.300379 1.219044 -7.874001 -15.467423 -16.127967 6.508752 35.782062 6.470600 0.452680 -24.647440 -10.823492 -34.647214 9.237217 -9.511314 -18.044571 -17.492513 124.796725 -10.577098 -46.383596 -3.666382 2.993341 0.193040 -0.016040 0.013530 0.205040 9.219287 41.968356 13.152824 10.043047 18.381933 -20.372878 -122.501853 30.729211 -74.718351 2.098729 -1.382109 -0.034040 0.632680 0.091490 0.239370 
